<svg xmlns="http://www.w3.org/2000/svg" viewBox="0 0 96 96" role="img" aria-labelledby="title desc">
  <title id="title">Imagine Clarity logo mark</title>
  <desc id="desc">A blue and cyan lens mark with a sparkle and transparent pixels.</desc>
  <defs>
    <linearGradient id="bg" x1="12" y1="8" x2="84" y2="88" gradientUnits="userSpaceOnUse">
      <stop stop-color="#111827"/>
      <stop offset="0.48" stop-color="#315CFF"/>
      <stop offset="1" stop-color="#0EA5A4"/>
    </linearGradient>
    <linearGradient id="shine" x1="24" y1="24" x2="76" y2="78" gradientUnits="userSpaceOnUse">
      <stop stop-color="#EAF4FF"/>
      <stop offset="0.5" stop-color="#8EDBFF"/>
      <stop offset="1" stop-color="#FFFFFF"/>
    </linearGradient>
    <filter id="softShadow" x="-20%" y="-20%" width="140%" height="140%">
      <feDropShadow dx="0" dy="8" stdDeviation="8" flood-color="#0F172A" flood-opacity="0.22"/>
    </filter>
  </defs>
  <rect x="8" y="8" width="80" height="80" rx="22" fill="url(#bg)" filter="url(#softShadow)"/>
  <path d="M23 52c5.4-13.6 14.1-20.4 26-20.4 11.8 0 20.2 6.8 25.2 20.4-5 13.6-13.4 20.4-25.2 20.4-11.9 0-20.6-6.8-26-20.4Z" fill="#F8FAFC" opacity="0.96"/>
  <circle cx="49" cy="52" r="15" fill="#111827"/>
  <circle cx="49" cy="52" r="8" fill="url(#shine)"/>
  <path d="M57 27l3.2 7.1 7.2 3.2-7.2 3.2L57 47.6l-3.2-7.1-7.2-3.2 7.2-3.2L57 27Z" fill="#FFFFFF"/>
  <rect x="25" y="25" width="7" height="7" rx="2" fill="#D9F8FF" opacity="0.9"/>
  <rect x="34" y="25" width="7" height="7" rx="2" fill="#D9F8FF" opacity="0.54"/>
  <rect x="25" y="34" width="7" height="7" rx="2" fill="#D9F8FF" opacity="0.54"/>
  <path d="M25 75h48" stroke="#FFFFFF" stroke-width="4" stroke-linecap="round" opacity="0.9"/>
</svg>
